<mxfile host="app.diagrams.net" modified="2023-11-07T05:46:18.273Z" agent="Mozilla/5.0 (Windows NT 10.0; Win64; x64) AppleWebKit/537.36 (KHTML, like Gecko) Chrome/118.0.0.0 Safari/537.36" version="22.0.8" etag="5sFXBQgYHQqjAOtYkCPw" type="github">
  <diagram name="Page-1" id="eCsXdz6EPuMsEAIomq5U">
    <mxGraphModel>
      <root>
        <mxCell id="0" />
        <mxCell id="1" parent="0" />
      </root>
    </mxGraphModel>
  </diagram>
</mxfile>
